<svg width="151" height="51" xmlns="http://www.w3.org/2000/svg" viewBox="0 0 793.99 246"><defs><style>.cls-1{fill:#426054;}.cls-2{fill:#b0845a;}</style></defs><g id="Layer_2" data-name="Layer 2"><g id="Layer_1-2" data-name="Layer 1"><path class="cls-1" d="M331.51,92.49a36.1,36.1,0,0,1,15.63,14.88q5.4,9.72,5.41,23.13t-5.41,22.94a35.89,35.89,0,0,1-15.63,14.76q-10.2,5.1-24.47,5.1H281.58v-86H307Q321.31,87.32,331.51,92.49Zm2.9,64.27q9.4-9.42,9.4-26.26T334.41,104Q325,94.47,307,94.46H290.19v71.71H307Q325,166.17,334.41,156.76Z"/><path class="cls-1" d="M377,94.33v32.11h32.6v7.13H377v32.6h36.29v7.13h-44.9V87.2h44.9v7.13Z"/><path class="cls-1" d="M431.88,107.56A40.1,40.1,0,0,1,447,91.94a41.71,41.71,0,0,1,21.4-5.6q14.4,0,24.66,6.83A38.76,38.76,0,0,1,508,112.42H497.93a29.57,29.57,0,0,0-11.25-13.66q-7.57-4.92-18.27-4.92a33.09,33.09,0,0,0-17,4.43A30.73,30.73,0,0,0,439.51,111a41.25,41.25,0,0,0-4.31,19.25,40.86,40.86,0,0,0,4.31,19.19,30.87,30.87,0,0,0,11.87,12.67,33.09,33.09,0,0,0,17,4.42q10.71,0,18.27-4.85a29.32,29.32,0,0,0,11.25-13.47H508a38.38,38.38,0,0,1-15,19.06Q482.68,174,468.41,174a41.71,41.71,0,0,1-21.4-5.6,40.28,40.28,0,0,1-15.13-15.56,45.78,45.78,0,0,1-5.53-22.63A46.15,46.15,0,0,1,431.88,107.56Z"/><path class="cls-1" d="M577.64,136.28a21.2,21.2,0,0,1,5,14,21.79,21.79,0,0,1-3.26,11.75,22.23,22.23,0,0,1-9.53,8.24,34.41,34.41,0,0,1-15,3H525.11v-86H554q13,0,19.86,6A19.87,19.87,0,0,1,580.71,109q0,8-4.3,13a22.67,22.67,0,0,1-11.08,7A20.65,20.65,0,0,1,577.64,136.28Zm-43.92-11h20q8.73,0,13.47-4.12T572,109.83c0-4.75-1.58-8.49-4.74-11.19s-7.77-4.06-13.84-4.06H533.72Zm35.12,36.28q5.24-4.43,5.23-12.17a15.33,15.33,0,0,0-5.48-12.36q-5.46-4.62-14.69-4.62H533.72V166h20.55Q563.62,166,568.84,161.61Z"/><path class="cls-1" d="M648.36,152.88H609.24l-7.5,20.42h-9.1L624,88.43h9.72L665,173.3h-9.1Zm-2.58-7.13-17-46.5-17,46.5Z"/><path class="cls-1" d="M689.87,171.21A24.47,24.47,0,0,1,679.72,163a21.61,21.61,0,0,1-3.93-11.81h9.1a17.3,17.3,0,0,0,5.53,11q4.92,4.74,14.39,4.73,8.75,0,13.84-4.49A14.49,14.49,0,0,0,723.76,151a13.49,13.49,0,0,0-2.83-8.92,17.28,17.28,0,0,0-7-5,108,108,0,0,0-11.57-3.63,102.08,102.08,0,0,1-13.65-4.55,21.76,21.76,0,0,1-8.61-6.89q-3.57-4.68-3.57-12.67A21.07,21.07,0,0,1,680,97.47a23,23,0,0,1,9.72-8.18,33.36,33.36,0,0,1,14.39-3q11.92,0,19.25,5.84a22,22,0,0,1,8.42,15.07H722.4a15.43,15.43,0,0,0-5.78-9.41q-4.92-4.12-13.28-4.12a20.06,20.06,0,0,0-12.92,4.12,13.63,13.63,0,0,0-5.16,11.25,13,13,0,0,0,2.83,8.74,18,18,0,0,0,7.07,5,103.82,103.82,0,0,0,11.5,3.69,105.39,105.39,0,0,1,13.53,4.61,22.15,22.15,0,0,1,8.73,7q3.57,4.68,3.57,12.55a22.16,22.16,0,0,1-3.2,11.44,23.29,23.29,0,0,1-9.47,8.73,31.71,31.71,0,0,1-15,3.32A35.57,35.57,0,0,1,689.87,171.21Z"/><path class="cls-1" d="M757.7,94.33v32.11h32.6v7.13H757.7v32.6H794v7.13h-44.9V87.2H794v7.13Z"/><path class="cls-2" d="M214,165.5A80.59,80.59,0,0,0,133.5,85h-.21C150.64,78.59,163,62.57,163,44,163,20,142.37.26,117,0H3V3L0,3,1,172l3,0-2.49,1.68,48,71L52,243v3h82A80.58,80.58,0,0,0,214,165.5ZM157,44c0,20.71-17.95,37.76-40,38H56.65L8.45,6H116.89C139,6.2,157,23.25,157,44ZM52,169H7L6.06,13.43,52,85.87ZM9.65,175H52v62.64ZM133.5,240H58V175h58v-6H58V88h58.5a40.33,40.33,0,0,1,14.37,2.64V91h1a40.49,40.49,0,0,1-15.35,78h-.29l0,6h.31a46.47,46.47,0,0,0,28.65-83.08A74.5,74.5,0,0,1,133.5,240Z"/></g></g></svg>
